<svg xmlns="http://www.w3.org/2000/svg" viewBox="0 0 900 900"><defs><style>.cls-1{fill:#fff;}</style></defs><g id="Logo"><path class="cls-1" d="M332.74,721.6C324.12,675.91,288.57,599.4,273.4,568H246.53c.31.53.6,1.08.87,1.62,10,20.23,61,124.56,72.06,183.25a39.71,39.71,0,0,0,15,24.55c10,7.5,26.42,15.52,52.14,17.49V758.71c-19.45-2.5-32.3-9-40.4-15.05A35.57,35.57,0,0,1,332.74,721.6ZM254.68,351a47.92,47.92,0,0,1-.39,16.16c-4,19.78-13.77,72-17.3,118.65h21.37c2.88-42.85,12.18-92.31,15.82-110.65a42.53,42.53,0,0,0,.36-14.54c-17.77-123.25,69.11-191.7,112.07-217.56V104.61C342.17,129.67,233.85,206.49,254.68,351ZM579.49,207.11a43.55,43.55,0,0,0,8.4,14.57c11.61,13.26,36.52,49.31,44.68,121.51,0,0,2.09,1-4.1,19.55a44.36,44.36,0,0,0-.85,25.49,68,68,0,0,1,1.9,24,42.49,42.49,0,0,0,2.09,18.49A192.72,192.72,0,0,1,642,485.81h21.5A212.9,212.9,0,0,0,652.21,429a47.62,47.62,0,0,1-2.35-20.59,75.49,75.49,0,0,0-2.1-26.71,49.36,49.36,0,0,1,1-28.38c6.88-20.6,4.53-21.76,4.53-21.76-9.06-80.39-36.8-120.53-49.73-135.28a48.12,48.12,0,0,1-9.33-16.23c-11.12-32.47-41.68-52.39-56.28-60.32a52.55,52.55,0,0,1-12.55-9.61A34.32,34.32,0,0,0,521.9,107v41.13a44.33,44.33,0,0,0,7.06,4.76C542.06,160.05,569.51,177.93,579.49,207.11ZM603,620.6a35.3,35.3,0,0,0-4.17,8.77l-30.28,97.41a36.06,36.06,0,0,1-18,21.44,97,97,0,0,1-28.57,9.12v36.34a110,110,0,0,0,40-11.2A40.14,40.14,0,0,0,582,758.63l33.7-108.44a39.68,39.68,0,0,1,4.64-9.78A273.89,273.89,0,0,0,654.16,568H629.31A252,252,0,0,1,603,620.6Z"/><path class="cls-1" d="M606.74,548.32C779.78,602.46,725,436.64,725,436.64c-28-28.67-9.14-75.33-2.23-89.78.57-1.2-2.12-2-3.59-1.07-38.52,24.26-24.63,61.73-24.63,61.73,64,181.53-57.87,128.44-143.15,94.19s-201-3.42-201-3.42C149.34,595.9,195,445.2,195,445.2c37.13-69.58,1.85-97.32-12.67-105.27-1.53-.84-4,0-3.43,1.17,6.85,12.91,26,57.2-2.17,107.53-33.5,59.93,24.37,111.31,36.55,111.31,51.77,0,143.15-39.39,194.92-39.39s76.14-3.42,106.6,3.43l.91.2C547,531.13,577.4,539.14,606.74,548.32Z"/><path class="cls-1" d="M407.16,291.15c0,.84-.59,2-1.78,3.39q-11,13.88-35.42,30.26-22.79,15.48-41.11,22.6a11.74,11.74,0,0,0-4.28,2.49,10.44,10.44,0,0,0,3.92,2.67,285.89,285.89,0,0,1,40.4,23.67q24,16.56,35.42,30.26,2.32,2.85,2.32,4.28c0,.11-1.78,3.62-5.34,10.5s-5.61,11-6.14,12.28-1.16,2-1.87,2-2-.83-3.92-2.49Q357,406,346.11,398a292.06,292.06,0,0,0-47.88-28.3,6.5,6.5,0,0,1-4.09-6.23V339c0-3,1.6-5,4.8-6.22q10.68-3.92,44.86-26.17a267.48,267.48,0,0,0,23.67-18.51q16.38-13.71,23.32-18.69c1.66-1.3,3-2,3.91-2Q397.55,267.48,407.16,291.15Z"/><path class="cls-1" d="M508.68,267.85c.95,0,2.25.66,3.91,2q6.95,5,23.32,18.69A267.48,267.48,0,0,0,559.58,307q34.17,22.25,44.85,26.16,4.82,1.79,4.81,6.23v24.39a6.5,6.5,0,0,1-4.09,6.23,292.06,292.06,0,0,0-47.88,28.3q-10.86,8-43.25,35.06-2.85,2.5-3.92,2.5c-.71,0-1.34-.66-1.87-2s-2.58-5.4-6.14-12.28-5.34-10.39-5.34-10.5q0-1.42,2.31-4.28,11.4-13.69,35.42-30.26a286,286,0,0,1,40.41-23.67,10.29,10.29,0,0,0,3.91-2.67,11.71,11.71,0,0,0-4.27-2.49q-18.33-7.12-41.11-22.61Q509,308.79,498,294.91c-1.19-1.43-1.79-2.55-1.79-3.39Q505.83,267.85,508.68,267.85Z"/><path class="cls-1" d="M495.38,231.63a26.44,26.44,0,0,1-.65,3.86q-10.14,38.16-29.62,114.45-6.27,24.8-18.67,76.46-2.58,12.41-8.69,36.54c-.75,2.15-1.67,3.22-2.74,3.22q-21.24-8.54-22.7-9.49c-.43-.22-.64-.75-.64-1.61a16.79,16.79,0,0,1,1-4.67q10.94-37.67,30.58-118,8.37-36.37,26.4-108.82c.64-2.14,1.5-3.22,2.58-3.22.74,0,4.8,1.64,12.15,4.91S495.38,230.67,495.38,231.63Z"/></g></svg>